<?xml version="1.0" encoding="utf-8"?>
<!-- Generator: Adobe Illustrator 21.1.0, SVG Export Plug-In . SVG Version: 6.00 Build 0)  -->
<svg version="1.1" id="Layer_1" xmlns="http://www.w3.org/2000/svg" xmlns:xlink="http://www.w3.org/1999/xlink" x="0px" y="0px"
	 viewBox="0 0 272.9 60.8" style="enable-background:new 0 0 272.9 60.8;" xml:space="preserve">
<style type="text/css">
	.st0{fill:#626C6F;}
	.st1{fill:#ED6B06;}
	.st2{fill:#109FD6;}
	.st3{fill:#4089A5;}
	.st4{fill:#8CA918;}
	.st5{fill:#877C1A;}
	.st6{fill:#BE560D;}
	.st7{fill:#6F9118;}
</style>
<path class="st0" d="M32.3,0.8c0,0-30.5,0-32.2,0C0.1,2.5,0,58.4,0,60.1c1.7,0,32.3,0,32.3,0c27.7,0,29.1-11.3,29.1-29.8
	C61.4,11.5,60,0.8,32.3,0.8 M32.1,50.9H10.9V10h21.2c18,0,18,6,18,20.5C50.1,44.5,50.1,50.9,32.1,50.9z"/>
<path class="st0" d="M126,36.3L126,36.3c-0.2-0.2-7.1-5.8-7.1-5.8l-1.2-1l1.2-0.9c0,0,5.9-5,6.2-5.3l0,0c0.1-0.2,0.8-2.2,0.8-6.2
	c0-13.7-6.8-16.3-19.3-16.3c0,0-34.5,0-36.2,0c0,1.7,0.1,57.6,0.1,59.3c1.7,0,37.4,0,37.4,0c12.4,0,19.5-2.7,19.5-16.8
	C127.4,38.4,126.1,36.4,126,36.3 M81.3,10h21.8l2.1,0c3.7,0,6.4-0.1,7.9,1.4c1.1,1,1.6,2.9,1.6,5.9c0,8.1-3.9,8.5-11.9,8.5H81.3V10z
	 M114.3,49.4L114.3,49.4c-1.6,1.6-4.6,1.6-8.7,1.5l-2,0H81.3V34.5h22.3c8.4,0,12.4,0.4,12.4,8.8C116,46.4,115.5,48.3,114.3,49.4z"/>
<path class="st0" d="M135.7,30.5c0-28,8.3-30.5,32.1-30.5c12.7,0,25.1,2.8,25.2,2.9l0.2,0.1c-0.2,1.3-1.3,7.8-1.5,9.3
	c-0.1,0-0.3-0.1-0.3-0.1c-1.3-0.2-12.6-2.4-22.4-2.4c-19.9,0-22.1,0.7-22.1,20.7c0,18.9,2,20.9,21.8,20.9c10.3,0,22.6-2.2,22.7-2.3
	c0,0,0.2,0,0.3,0c0.2,1.4,1.3,7.6,1.5,8.9l-0.2,0.1c-0.5,0.1-12.7,2.9-25.2,2.9C144,60.8,135.7,58.3,135.7,30.5"/>
<path class="st1" d="M231.2,26.1c-0.6-1-1.2-2-1.6-2.9c7.4-2.2,15.5-3.5,22.7-3.6c3.1,0,6,0.3,8.6,0.8c0.5,0.1,1.1,0.3,1.6,0.4
	c-0.3,1.1-0.5,2.1-0.8,3.2c-2.6-0.8-5.8-1.1-9.3-1.1c0,0-0.1,0-0.1,0c-5.9,0-12.6,1-18.9,2.7C232.6,25.7,231.9,25.9,231.2,26.1
	 M223.6,28.7c-0.5-0.9-1-1.9-1.6-2.9c1.3-0.5,2.7-1,4.1-1.5c0.1,0,0.3-0.1,0.4-0.1c0,0.1,0.1,0.1,0.1,0.2c0.4,0.9,0.9,1.8,1.4,2.7
	C226.5,27.6,225,28.1,223.6,28.7 M209.9,36.8l-2.5-2.1c1.7-2,4.3-3.9,7.5-5.6c1.3-0.7,2.6-1.4,4.1-2c0.5,1,1,2,1.5,2.9
	c-1.5,0.6-2.8,1.3-4.1,2C213.5,33.5,211.2,35.3,209.9,36.8 M269,45.6l-2.9-1.6c2.5-4.6,3.5-8.2,3.5-11c0-1.9-0.4-3.3-1.2-4.6
	c-0.8-1.2-1.9-2.2-3.4-3.1c-0.1,0-0.1-0.1-0.2-0.1c0.3-1.1,0.6-2.1,0.9-3.2c0.8,0.4,1.6,0.8,2.3,1.3c1.3,0.9,2.4,2,3.2,3.3
	c1.1,1.8,1.7,3.9,1.7,6.3C272.9,36.6,271.6,40.7,269,45.6"/>
<path class="st2" d="M226.5,24.2c-0.7-1.8-1.1-3.5-1.1-5.2c0-2.5,0.8-4.8,2.6-6.9c1.7-2,4.3-3.7,7.7-5.1c6.9-2.7,17.3-4.3,32.6-4.3
	c0.2,0,0.4,0,0.6,0l0,3.3c-0.2,0-0.4,0-0.6,0c-8.4,0-15.3,0.5-20.9,1.4c-5.5,0.9-9.7,2.1-12.6,3.6c-2,1-3.4,2.1-4.3,3.2
	c-1.3,1.5-1.8,3-1.8,4.7c0,1.3,0.3,2.7,0.9,4.2c0,0,0,0.1,0,0.1C228.6,23.5,227.5,23.8,226.5,24.2 M248.5,46.1
	c-5.9-3.8-11.1-8-15.2-12.2c-2.1-2.3-4-4.5-5.3-6.8c1.1-0.3,2.1-0.7,3.2-1c0.4,0.6,0.8,1.2,1.2,1.8c2.5,3.3,6,6.8,10.3,10.1
	c2.6,2.1,5.5,4.1,8.5,6c-0.3,0.3-0.6,0.5-0.8,0.7C249.8,45.3,249.1,45.7,248.5,46.1 M271.6,58c-6.7-2.6-13.6-6.1-20.1-10
	c0.3-0.2,0.7-0.5,1-0.8c0.6-0.5,1.1-1,1.6-1.5c6,3.6,12.5,6.8,18.7,9.2L271.6,58"/>
<path class="st3" d="M228,27.1c-0.5-0.9-1-1.8-1.4-2.7c0-0.1-0.1-0.1-0.1-0.2c1-0.3,2.1-0.7,3.1-1c0.4,0.9,0.9,1.9,1.6,2.9
	C230.1,26.4,229.1,26.8,228,27.1"/>
<path class="st4" d="M219,27c-2.2-4.2-4.4-9-6.7-14.6l3-1.2c2.3,5.6,4.5,10.4,6.7,14.5C221,26.2,220,26.6,219,27 M243.6,50.7
	c-2.4,0-4.9-0.7-7.4-2.2c-2.5-1.5-5.1-3.7-7.6-6.7c-2.6-3.1-5.3-7-8-11.9c1-0.4,2-0.8,3-1.3c1.3,2.3,2.5,4.3,3.7,6.1
	c3.8,5.6,7.3,9.1,10.5,11c2.1,1.2,4,1.7,5.8,1.7c1.7,0,3.3-0.5,4.8-1.3c0.7,0.5,1.4,0.9,2.1,1.3c0.3,0.2,0.6,0.4,0.9,0.6
	C249.2,49.7,246.5,50.7,243.6,50.7"/>
<path class="st5" d="M220.6,29.9c-0.5-0.9-1-1.9-1.5-2.9c1-0.4,2-0.9,3-1.3c0.5,1,1,2,1.6,2.9C222.6,29.1,221.5,29.5,220.6,29.9"/>
<path class="st4" d="M265.6,22c-1-0.5-2-0.8-3.1-1.1c0.6-2.3,1-4.6,1.3-7l3.2,0.5C266.7,16.9,266.2,19.5,265.6,22 M254.1,45.8
	c-1-0.6-1.9-1.2-2.9-1.8c1.9-1.7,3.6-4.1,5.2-6.8c2.1-3.8,3.9-8.3,5.3-13.1c1.1,0.3,2.2,0.7,3.1,1.2c-0.8,2.8-1.7,5.5-2.8,8.1
	C259.9,38.3,257.3,42.6,254.1,45.8"/>
<path class="st6" d="M264.8,25.3c-0.9-0.5-1.9-0.9-3.1-1.2c0.3-1,0.6-2.1,0.8-3.2c1.1,0.3,2.1,0.7,3.1,1.1
	C265.4,23.1,265.1,24.2,264.8,25.3"/>
<path class="st7" d="M251.5,48c-0.3-0.2-0.6-0.4-0.9-0.6c-0.7-0.4-1.4-0.9-2.1-1.3c0.7-0.4,1.3-0.8,2-1.4c0.3-0.2,0.6-0.5,0.8-0.7
	c0.9,0.6,1.9,1.2,2.9,1.8c-0.5,0.5-1.1,1-1.6,1.5C252.2,47.5,251.8,47.8,251.5,48"/>
</svg>
